<svg width="144" height="128" viewBox="0 0 144 128" fill="none" xmlns="http://www.w3.org/2000/svg">
<rect width="144" height="128" fill="white"/>
<path d="M73.1934 64.2266C73.3171 64.168 73.4831 64.0833 73.6914 63.9727C73.8997 63.8555 74.1113 63.735 74.3262 63.6113C74.5475 63.4876 74.7526 63.3704 74.9414 63.2598C75.1302 63.1426 75.2702 63.0514 75.3613 62.9863C75.446 62.9212 75.5176 62.8887 75.5762 62.8887C75.6283 62.8887 75.6673 62.9342 75.6934 63.0254C75.7259 63.11 75.7422 63.2077 75.7422 63.3184C75.7422 63.3379 75.7389 63.3574 75.7324 63.377C75.7324 63.3965 75.7324 63.416 75.7324 63.4355C75.7194 63.5137 75.6152 63.6243 75.4199 63.7676C75.2246 63.9108 74.974 64.0736 74.668 64.2559C74.3685 64.4316 74.0299 64.6237 73.6523 64.832C73.2812 65.0339 72.9069 65.2357 72.5293 65.4375C72.1582 65.6328 71.8034 65.8184 71.4648 65.9941C71.1328 66.1634 70.8529 66.3066 70.625 66.4238C70.1562 66.6647 69.6875 66.8991 69.2188 67.127C68.7565 67.3548 68.3073 67.5436 67.8711 67.6934C67.181 67.9668 66.3965 68.1751 65.5176 68.3184C64.6452 68.4616 63.6491 68.5332 62.5293 68.5332C61.6764 68.5332 60.8757 68.4258 60.127 68.2109C59.3783 67.9961 58.724 67.6901 58.1641 67.293C57.6107 66.9023 57.1712 66.4336 56.8457 65.8867C56.5267 65.3333 56.3672 64.7214 56.3672 64.0508C56.3672 63.9596 56.3704 63.8717 56.377 63.7871C56.3835 63.696 56.3932 63.6048 56.4062 63.5137C56.0352 63.6178 55.6999 63.709 55.4004 63.7871C55.1074 63.8652 54.8275 63.9336 54.5605 63.9922C54.3001 64.0443 54.043 64.0833 53.7891 64.1094C53.5417 64.1354 53.2812 64.1484 53.0078 64.1484C52.4805 64.1484 52.0247 64.0931 51.6406 63.9824C51.263 63.8717 50.9505 63.7188 50.7031 63.5234C50.4622 63.3216 50.2832 63.084 50.166 62.8105C50.0553 62.5306 50 62.2214 50 61.8828C50 61.4206 50.0977 60.916 50.293 60.3691C50.4948 59.8223 50.778 59.2591 51.1426 58.6797C51.5072 58.1003 51.9434 57.5176 52.4512 56.9316C52.959 56.3392 53.5221 55.7695 54.1406 55.2227C54.7656 54.6758 55.4362 54.168 56.1523 53.6992C56.8685 53.224 57.6139 52.8105 58.3887 52.459C59.1634 52.1074 59.9577 51.8307 60.7715 51.6289C61.5918 51.4271 62.4121 51.3262 63.2324 51.3262C63.6426 51.3262 63.9909 51.3555 64.2773 51.4141C64.5638 51.4661 64.7949 51.5345 64.9707 51.6191C65.153 51.7038 65.2865 51.7949 65.3711 51.8926C65.4557 51.9837 65.498 52.0684 65.498 52.1465C65.498 52.2311 65.4688 52.293 65.4102 52.332C65.3581 52.3646 65.2962 52.3809 65.2246 52.3809C65.127 52.3809 65.0065 52.3548 64.8633 52.3027C64.7201 52.2507 64.5378 52.1953 64.3164 52.1367C64.1016 52.0716 63.8379 52.013 63.5254 51.9609C63.2194 51.9089 62.8548 51.8828 62.4316 51.8828C61.8392 51.8828 61.2207 51.9772 60.5762 52.166C59.9382 52.3548 59.2969 52.6152 58.6523 52.9473C58.0143 53.2728 57.3828 53.6569 56.7578 54.0996C56.1328 54.5358 55.5404 55.0046 54.9805 55.5059C54.4206 56.0072 53.8997 56.528 53.418 57.0684C52.9427 57.6087 52.5326 58.1426 52.1875 58.6699C51.8424 59.1973 51.5723 59.7083 51.377 60.2031C51.1816 60.6914 51.084 61.1341 51.084 61.5312C51.084 61.7917 51.1296 62.0293 51.2207 62.2441C51.3118 62.459 51.4551 62.6445 51.6504 62.8008C51.8522 62.9505 52.1061 63.0677 52.4121 63.1523C52.7246 63.237 53.099 63.2793 53.5352 63.2793C53.8086 63.2793 54.0495 63.2695 54.2578 63.25C54.4661 63.2305 54.6777 63.2012 54.8926 63.1621C55.1074 63.1165 55.3385 63.0612 55.5859 62.9961C55.8398 62.931 56.1426 62.8561 56.4941 62.7715C56.6243 62.0618 56.8262 61.3555 57.0996 60.6523C57.3796 59.9492 57.7116 59.2786 58.0957 58.6406C58.4798 57.9961 58.9062 57.4004 59.375 56.8535C59.8503 56.3001 60.3451 55.8216 60.8594 55.418C61.3802 55.0143 61.9108 54.6986 62.4512 54.4707C62.998 54.2363 63.5352 54.1191 64.0625 54.1191C64.4531 54.1191 64.834 54.1908 65.2051 54.334C65.5827 54.4707 65.9408 54.6888 66.2793 54.9883C66.6178 55.2878 66.9336 55.6751 67.2266 56.1504C67.526 56.6257 67.793 57.1986 68.0273 57.8691C68.6523 57.5111 69.2513 57.153 69.8242 56.7949C70.4036 56.4303 70.9798 56.0527 71.5527 55.6621C71.6504 54.8418 71.7578 54.0638 71.875 53.3281C71.9987 52.5924 72.1647 51.8893 72.373 51.2188C72.7572 50.0664 73.1803 49.0768 73.6426 48.25C74.1113 47.4167 74.6094 46.7331 75.1367 46.1992C75.6641 45.6589 76.2174 45.2617 76.7969 45.0078C77.3828 44.7474 77.985 44.6172 78.6035 44.6172C78.9225 44.6172 79.2155 44.653 79.4824 44.7246C79.7559 44.7897 79.9902 44.8874 80.1855 45.0176C80.3809 45.1413 80.5306 45.3008 80.6348 45.4961C80.7454 45.6849 80.8008 45.8997 80.8008 46.1406C80.8008 46.2839 80.7878 46.4108 80.7617 46.5215C80.6445 47.0618 80.4329 47.6478 80.127 48.2793C79.8275 48.9108 79.4141 49.5716 78.8867 50.2617C78.3659 50.9453 77.7246 51.6484 76.9629 52.3711C76.2077 53.0938 75.3158 53.8164 74.2871 54.5391C74.1764 55.0859 74.0723 55.6393 73.9746 56.1992C73.8835 56.7591 73.7891 57.3158 73.6914 57.8691C73.6003 58.4225 73.5059 58.9661 73.4082 59.5C73.3105 60.0339 73.2031 60.5482 73.0859 61.043C72.8776 61.8307 72.627 62.5762 72.334 63.2793C72.0475 63.9824 71.6797 64.6302 71.2305 65.2227C71.6406 65.0143 72.0215 64.819 72.373 64.6367C72.7246 64.4544 72.998 64.3177 73.1934 64.2266ZM70.2051 62.8105C70.3483 62.3809 70.485 61.8958 70.6152 61.3555C70.7454 60.8086 70.8626 60.2487 70.9668 59.6758C71.0775 59.0964 71.1751 58.5267 71.2598 57.9668C71.3509 57.4004 71.4258 56.8763 71.4844 56.3945C70.3971 57.0911 69.2839 57.7552 68.1445 58.3867C68.1771 58.4974 68.2031 58.6113 68.2227 58.7285C68.2422 58.8392 68.252 58.9596 68.252 59.0898C68.252 59.2266 68.2357 59.3893 68.2031 59.5781C68.1771 59.7604 68.1315 59.9362 68.0664 60.1055C68.0078 60.2682 67.9297 60.4082 67.832 60.5254C67.7409 60.6426 67.6335 60.7012 67.5098 60.7012C67.4056 60.7012 67.3177 60.6654 67.2461 60.5938C67.181 60.5221 67.1484 60.431 67.1484 60.3203C67.1484 60.2031 67.1582 60.0892 67.1777 59.9785C67.1973 59.8678 67.207 59.7604 67.207 59.6562C67.207 59.3828 67.1745 59.1484 67.1094 58.9531C65.3776 59.8971 63.6751 60.737 62.002 61.4727C60.3288 62.2083 58.7337 62.8105 57.2168 63.2793C57.2103 63.3314 57.207 63.3802 57.207 63.4258C57.207 63.4648 57.207 63.5072 57.207 63.5527C57.207 64.2428 57.347 64.8288 57.627 65.3105C57.9134 65.7923 58.2975 66.1862 58.7793 66.4922C59.2611 66.7917 59.8177 67.0098 60.4492 67.1465C61.0872 67.2832 61.7578 67.3516 62.4609 67.3516C62.8906 67.3516 63.2943 67.332 63.6719 67.293C64.056 67.2604 64.4238 67.2116 64.7754 67.1465C64.6712 66.9967 64.5996 66.86 64.5605 66.7363C64.5215 66.6126 64.502 66.5345 64.502 66.502C64.502 66.3652 64.5345 66.2415 64.5996 66.1309C64.6712 66.0137 64.7624 65.916 64.873 65.8379C64.9837 65.7533 65.1139 65.6882 65.2637 65.6426C65.4134 65.597 65.5729 65.5742 65.7422 65.5742C65.9635 65.5742 66.1751 65.623 66.377 65.7207C66.5788 65.8118 66.7415 65.9616 66.8652 66.1699C66.9173 66.2611 66.9792 66.3392 67.0508 66.4043C67.832 66.0007 68.4733 65.4896 68.9746 64.8711C69.4759 64.2526 69.8861 63.5658 70.2051 62.8105ZM67.041 58.416C66.8132 57.7845 66.569 57.2441 66.3086 56.7949C66.0482 56.3392 65.7715 55.9681 65.4785 55.6816C65.1921 55.3887 64.8926 55.1738 64.5801 55.0371C64.2676 54.9004 63.9453 54.832 63.6133 54.832C63.2227 54.832 62.8255 54.9232 62.4219 55.1055C62.0247 55.2878 61.6276 55.5449 61.2305 55.877C60.8398 56.209 60.4557 56.6094 60.0781 57.0781C59.7005 57.5469 59.3392 58.0677 58.9941 58.6406C58.6556 59.2135 58.3366 59.832 58.0371 60.4961C57.7376 61.1536 57.4707 61.8438 57.2363 62.5664C58.7663 62.1172 60.3548 61.541 62.002 60.8379C63.6556 60.1283 65.3353 59.321 67.041 58.416ZM75.0781 51.4434C74.9544 51.8145 74.8438 52.1888 74.7461 52.5664C74.6484 52.9375 74.554 53.3184 74.4629 53.709C75.3613 53.0645 76.1263 52.4264 76.7578 51.7949C77.3958 51.1569 77.9232 50.5417 78.3398 49.9492C78.763 49.3503 79.0918 48.7806 79.3262 48.2402C79.5605 47.6999 79.7266 47.2051 79.8242 46.7559C79.8307 46.7363 79.834 46.6908 79.834 46.6191C79.834 46.3913 79.7233 46.2025 79.502 46.0527C79.2871 45.903 79.0039 45.8281 78.6523 45.8281C78.3008 45.8281 77.9818 45.9193 77.6953 46.1016C77.4154 46.2839 77.1387 46.5931 76.8652 47.0293C76.5983 47.459 76.3216 48.0352 76.0352 48.7578C75.7487 49.474 75.4297 50.3691 75.0781 51.4434Z" fill="black"/>
<path d="M80.7617 66.7559C81.0156 66.7233 81.3314 66.6224 81.709 66.4531C82.0866 66.2773 82.5 66.0527 82.9492 65.7793C83.3984 65.4993 83.8672 65.1771 84.3555 64.8125C84.8503 64.4479 85.3418 64.0573 85.8301 63.6406C86.3184 63.224 86.7904 62.7878 87.2461 62.332C87.7083 61.8763 88.1283 61.4206 88.5059 60.9648C88.5319 60.9258 88.5482 60.8574 88.5547 60.7598C88.5677 60.6556 88.5938 60.5514 88.6328 60.4473C88.6784 60.3366 88.7467 60.2422 88.8379 60.1641C88.9355 60.0794 89.082 60.0371 89.2773 60.0371C89.4401 60.0371 89.5703 60.0566 89.668 60.0957C89.7656 60.1348 89.8372 60.1901 89.8828 60.2617C89.9349 60.3268 89.9674 60.4082 89.9805 60.5059C89.9935 60.597 90 60.7012 90 60.8184C90 60.9355 89.9707 61.0983 89.9121 61.3066C89.86 61.5085 89.7884 61.7428 89.6973 62.0098C89.6061 62.2702 89.502 62.5534 89.3848 62.8594C89.2676 63.1654 89.1471 63.4746 89.0234 63.7871C88.9062 64.0931 88.7891 64.3991 88.6719 64.7051C88.5612 65.0046 88.4635 65.2812 88.3789 65.5352C88.4635 65.4896 88.5872 65.418 88.75 65.3203C88.9128 65.2227 89.0983 65.1087 89.3066 64.9785C89.5215 64.8483 89.7461 64.7083 89.9805 64.5586C90.2214 64.4089 90.459 64.2591 90.6934 64.1094L92.4805 62.9863C92.526 62.9603 92.5749 62.9473 92.627 62.9473C92.6986 62.9473 92.7637 62.9766 92.8223 63.0352C92.8809 63.0872 92.9102 63.1556 92.9102 63.2402C92.9102 63.3314 92.8743 63.4258 92.8027 63.5234C92.7376 63.6146 92.6302 63.7057 92.4805 63.7969L87.8711 66.502C87.819 66.5345 87.7669 66.5866 87.7148 66.6582C87.6693 66.7233 87.6139 66.7884 87.5488 66.8535C87.4902 66.9186 87.4154 66.974 87.3242 67.0195C87.2396 67.0716 87.1289 67.0977 86.9922 67.0977C86.862 67.0977 86.7546 67.0651 86.6699 67C86.5853 66.9284 86.543 66.834 86.543 66.7168C86.543 66.5671 86.5788 66.3717 86.6504 66.1309C86.7285 65.89 86.8229 65.6263 86.9336 65.3398C87.0508 65.0469 87.181 64.7441 87.3242 64.4316C87.474 64.1126 87.6172 63.8034 87.7539 63.5039C87.8971 63.1979 88.0273 62.9115 88.1445 62.6445C88.2682 62.3711 88.3659 62.1367 88.4375 61.9414C88.1576 62.293 87.8288 62.6738 87.4512 63.084C87.0736 63.4941 86.6569 63.9043 86.2012 64.3145C85.752 64.7181 85.2734 65.112 84.7656 65.4961C84.2578 65.8737 83.7337 66.209 83.1934 66.502C82.653 66.7884 82.1061 67.0195 81.5527 67.1953C80.9993 67.3711 80.4492 67.459 79.9023 67.459C79.5898 67.459 79.375 67.3743 79.2578 67.2051C79.1406 67.0423 79.082 66.821 79.082 66.541C79.082 66.2871 79.1243 65.9876 79.209 65.6426C79.2936 65.2975 79.4043 64.9297 79.541 64.5391C79.6777 64.1484 79.8307 63.748 80 63.3379C80.1758 62.9277 80.3451 62.5339 80.5078 62.1562C80.6771 61.7786 80.8333 61.4271 80.9766 61.1016C81.1263 60.776 81.2467 60.5026 81.3379 60.2812C81.0319 60.444 80.6673 60.6458 80.2441 60.8867C79.8275 61.1276 79.3652 61.401 78.8574 61.707C78.3496 62.0065 77.7995 62.3353 77.207 62.6934C76.6211 63.0449 76.0059 63.4128 75.3613 63.7969C75.2897 63.8359 75.2246 63.8555 75.166 63.8555C75.0879 63.8555 75.0195 63.8294 74.9609 63.7773C74.9023 63.7253 74.873 63.6569 74.873 63.5723C74.873 63.4941 74.9121 63.4062 74.9902 63.3086C75.0618 63.2044 75.1855 63.097 75.3613 62.9863C76.1882 62.485 76.9727 62.026 77.7148 61.6094C78.457 61.1927 79.1276 60.8379 79.7266 60.5449C80.332 60.2454 80.8464 60.0143 81.2695 59.8516C81.6992 59.6823 82.0085 59.5977 82.1973 59.5977C82.5879 59.5977 82.8613 59.6758 83.0176 59.832C83.1803 59.9883 83.2617 60.2031 83.2617 60.4766C83.2617 60.7565 83.1901 61.082 83.0469 61.4531C82.9102 61.8177 82.7376 62.1986 82.5293 62.5957C82.321 62.9928 82.0964 63.3932 81.8555 63.7969C81.6146 64.2005 81.39 64.5814 81.1816 64.9395C80.9733 65.2975 80.7975 65.6165 80.6543 65.8965C80.5176 66.1764 80.4492 66.3913 80.4492 66.541C80.4492 66.6908 80.5241 66.7656 80.6738 66.7656C80.7259 66.7656 80.7552 66.7624 80.7617 66.7559ZM103.594 62.9863C103.639 62.9603 103.688 62.9473 103.74 62.9473C103.818 62.9473 103.89 62.9733 103.955 63.0254C104.02 63.0775 104.053 63.1491 104.053 63.2402C104.053 63.3184 104.017 63.4062 103.945 63.5039C103.88 63.6016 103.763 63.6992 103.594 63.7969C103.262 63.9857 102.897 64.1973 102.5 64.4316C102.109 64.6595 101.706 64.8939 101.289 65.1348C100.879 65.3757 100.469 65.6133 100.059 65.8477C99.6484 66.082 99.2578 66.2969 98.8867 66.4922C98.5221 66.6875 98.1901 66.8568 97.8906 67C97.5911 67.1367 97.347 67.2311 97.1582 67.2832C97.054 67.3158 96.9564 67.3353 96.8652 67.3418C96.7806 67.3548 96.7025 67.3613 96.6309 67.3613C96.3574 67.3613 96.1328 67.293 95.957 67.1562C95.7812 67.0195 95.6413 66.8372 95.5371 66.6094C95.4395 66.375 95.3711 66.1048 95.332 65.7988C95.293 65.4863 95.2734 65.1576 95.2734 64.8125C95.2734 64.3438 95.2962 63.8685 95.3418 63.3867C95.3874 62.8984 95.4297 62.4492 95.4688 62.0391L93.3496 63.2891L92.4902 63.7969C92.4447 63.8229 92.3926 63.8359 92.334 63.8359C92.2559 63.8359 92.1875 63.8099 92.1289 63.7578C92.0703 63.7057 92.041 63.6341 92.041 63.543C92.041 63.4648 92.0736 63.3802 92.1387 63.2891C92.2038 63.1914 92.321 63.0905 92.4902 62.9863L95.5273 61.1992C95.8398 60.1185 96.1621 59.1257 96.4941 58.2207C96.8262 57.3158 97.1875 56.4987 97.5781 55.7695C97.9688 55.0404 98.3952 54.3991 98.8574 53.8457C99.3197 53.2923 99.8372 52.8333 100.41 52.4688C100.983 52.0977 101.618 51.821 102.314 51.6387C103.018 51.4499 103.799 51.3555 104.658 51.3555C105.088 51.3555 105.449 51.3945 105.742 51.4727C106.035 51.5443 106.273 51.6517 106.455 51.7949C106.644 51.9316 106.777 52.0977 106.855 52.293C106.94 52.4883 106.982 52.7031 106.982 52.9375C106.982 53.2305 106.885 53.5462 106.689 53.8848C106.494 54.2168 106.23 54.5618 105.898 54.9199C105.566 55.278 105.182 55.6426 104.746 56.0137C104.31 56.3783 103.851 56.7396 103.369 57.0977C102.887 57.4557 102.396 57.8008 101.895 58.1328C101.4 58.4648 100.924 58.7741 100.469 59.0605C100.02 59.347 99.6029 59.6042 99.2188 59.832C98.8411 60.0599 98.5319 60.2454 98.291 60.3887C98.1738 60.7988 98.0566 61.2285 97.9395 61.6777C97.8223 62.127 97.7148 62.5794 97.6172 63.0352C97.526 63.4909 97.4512 63.9434 97.3926 64.3926C97.334 64.8353 97.3047 65.252 97.3047 65.6426C97.3047 65.7988 97.3177 65.9323 97.3438 66.043C97.3763 66.1536 97.4284 66.209 97.5 66.209C97.6237 66.209 97.806 66.1634 98.0469 66.0723C98.2943 65.9746 98.5775 65.8444 98.8965 65.6816C99.2155 65.5189 99.5638 65.3333 99.9414 65.125C100.326 64.9102 100.723 64.6823 101.133 64.4414C101.543 64.2005 101.956 63.9564 102.373 63.709C102.79 63.4616 103.197 63.2207 103.594 62.9863ZM98.4277 59.4902C98.8184 59.2819 99.2806 59.0085 99.8145 58.6699C100.355 58.3314 100.911 57.9603 101.484 57.5566C102.064 57.1465 102.633 56.7168 103.193 56.2676C103.753 55.8184 104.255 55.3789 104.697 54.9492C105.146 54.5195 105.508 54.1126 105.781 53.7285C106.055 53.3379 106.191 52.9993 106.191 52.7129C106.191 52.472 106.064 52.2799 105.811 52.1367C105.563 51.987 105.156 51.9121 104.59 51.9121C103.698 51.9121 102.926 52.0716 102.275 52.3906C101.624 52.7096 101.058 53.1849 100.576 53.8164C100.101 54.4479 99.6908 55.2389 99.3457 56.1895C99.0072 57.1335 98.7012 58.2337 98.4277 59.4902ZM114.18 53.377C113.809 53.377 113.457 53.4551 113.125 53.6113C112.793 53.7676 112.477 53.9824 112.178 54.2559C111.885 54.5293 111.608 54.8548 111.348 55.2324C111.087 55.61 110.843 56.0169 110.615 56.4531C110.387 56.8893 110.176 57.3483 109.98 57.8301C109.792 58.3118 109.619 58.7969 109.463 59.2852C110.342 58.6536 111.113 58.0547 111.777 57.4883C112.441 56.9219 112.998 56.4043 113.447 55.9355C113.896 55.4668 114.232 55.0534 114.453 54.6953C114.681 54.3307 114.795 54.0345 114.795 53.8066C114.795 53.6764 114.753 53.5723 114.668 53.4941C114.59 53.416 114.427 53.377 114.18 53.377ZM115.166 59.1387C115.322 59.2168 115.4 59.3112 115.4 59.4219C115.4 59.5911 115.335 59.7474 115.205 59.8906C115.081 60.0339 114.915 60.1641 114.707 60.2812C114.505 60.3919 114.274 60.4896 114.014 60.5742C113.76 60.6589 113.503 60.7305 113.242 60.7891C112.988 60.8477 112.744 60.8932 112.51 60.9258C112.249 60.9583 112.054 60.9714 111.924 60.9648C111.416 60.9518 110.915 60.9421 110.42 60.9355L108.984 60.916C108.789 61.6452 108.636 62.2702 108.525 62.791C108.415 63.3053 108.33 63.7546 108.271 64.1387C108.219 64.5163 108.187 64.8451 108.174 65.125C108.161 65.4049 108.154 65.6751 108.154 65.9355C108.154 66.0788 108.174 66.1927 108.213 66.2773C108.252 66.362 108.317 66.4043 108.408 66.4043C108.727 66.4043 109.079 66.2969 109.463 66.082C109.854 65.8672 110.29 65.5938 110.771 65.2617L112.393 64.1582C113.278 63.5527 113.942 63.1621 114.385 62.9863C114.417 62.9733 114.482 62.944 114.58 62.8984C114.632 62.8789 114.681 62.8691 114.727 62.8691C114.87 62.8691 114.941 62.944 114.941 63.0938C114.941 63.1914 114.899 63.3053 114.814 63.4355C114.723 63.5592 114.58 63.6797 114.385 63.7969C113.389 64.3958 112.653 64.8646 112.178 65.2031L110.508 66.4141C110.013 66.7656 109.561 67.0456 109.15 67.2539C108.734 67.4622 108.314 67.5664 107.891 67.5664C107.526 67.5664 107.243 67.4688 107.041 67.2734C106.846 67.0781 106.699 66.8405 106.602 66.5605C106.51 66.2741 106.455 65.9681 106.436 65.6426C106.416 65.3171 106.406 65.0273 106.406 64.7734C106.406 64.2786 106.432 63.7871 106.484 63.2988C106.543 62.8105 106.618 62.3418 106.709 61.8926L105.176 62.8594L103.604 63.7969C103.571 63.8164 103.535 63.8262 103.496 63.8262C103.424 63.8262 103.356 63.7969 103.291 63.7383C103.226 63.6732 103.193 63.5951 103.193 63.5039C103.193 63.4323 103.223 63.3509 103.281 63.2598C103.34 63.1686 103.447 63.0775 103.604 62.9863L105.332 62C105.879 61.6745 106.406 61.3457 106.914 61.0137L106.934 60.9258L105.684 60.9551C105.618 60.9551 105.557 60.9583 105.498 60.9648C105.439 60.9714 105.384 60.9746 105.332 60.9746C105.221 60.9746 105.13 60.9421 105.059 60.877C104.993 60.8053 104.954 60.7272 104.941 60.6426C104.941 60.571 104.997 60.5026 105.107 60.4375C105.218 60.3724 105.374 60.3138 105.576 60.2617C105.778 60.2031 106.019 60.151 106.299 60.1055C106.579 60.0534 106.888 60.0078 107.227 59.9688C107.617 58.7448 108.04 57.6836 108.496 56.7852C108.952 55.8867 109.463 55.1445 110.029 54.5586C110.602 53.9727 111.24 53.5365 111.943 53.25C112.646 52.9635 113.441 52.8203 114.326 52.8203C114.736 52.8203 115.033 52.8854 115.215 53.0156C115.404 53.1393 115.498 53.3151 115.498 53.543C115.498 53.8555 115.358 54.2331 115.078 54.6758C114.805 55.1185 114.417 55.61 113.916 56.1504C113.421 56.6842 112.826 57.2539 112.129 57.8594C111.439 58.4583 110.674 59.0736 109.834 59.7051C110.251 59.666 110.674 59.6302 111.104 59.5977L112.373 59.4902C112.79 59.4577 113.197 59.4219 113.594 59.3828C113.997 59.3438 114.382 59.3014 114.746 59.2559C114.818 59.2363 114.87 59.2103 114.902 59.1777C114.935 59.1387 114.99 59.1191 115.068 59.1191C115.094 59.1191 115.127 59.1257 115.166 59.1387ZM116.406 65.6719C116.406 65.4505 116.416 65.2096 116.436 64.9492C116.462 64.6823 116.491 64.4056 116.523 64.1191C116.562 63.8262 116.608 63.5332 116.66 63.2402C116.712 62.9408 116.768 62.6478 116.826 62.3613L114.385 63.7969C114.32 63.8424 114.248 63.8652 114.17 63.8652C114.092 63.8652 114.027 63.8392 113.975 63.7871C113.916 63.735 113.887 63.6699 113.887 63.5918C113.887 63.5007 113.926 63.4062 114.004 63.3086C114.076 63.2044 114.202 63.097 114.385 62.9863L116.924 61.3945C117.028 61.0951 117.178 60.6914 117.373 60.1836C117.568 59.6758 117.809 59.1126 118.096 58.4941C118.382 57.8757 118.714 57.2214 119.092 56.5312C119.469 55.8411 119.896 55.1576 120.371 54.4805C120.846 53.8034 121.367 53.1589 121.934 52.5469C122.5 51.9284 123.112 51.3848 123.77 50.916C124.434 50.4473 125.143 50.0762 125.898 49.8027C126.66 49.5228 127.471 49.3828 128.33 49.3828C129.059 49.3828 129.694 49.4349 130.234 49.5391C130.775 49.6367 131.221 49.7767 131.572 49.959C131.924 50.1413 132.184 50.3561 132.354 50.6035C132.529 50.8444 132.617 51.1081 132.617 51.3945C132.617 51.8438 132.422 52.3158 132.031 52.8105C131.647 53.2988 131.071 53.7773 130.303 54.2461L119.189 61.0918L118.604 64.8516C118.936 64.6497 119.268 64.4479 119.6 64.2461C119.932 64.0378 120.244 63.8392 120.537 63.6504C120.837 63.4616 121.107 63.2891 121.348 63.1328C121.595 62.9701 121.794 62.8333 121.943 62.7227C122.015 62.6576 122.109 62.5827 122.227 62.498C122.35 62.4134 122.487 62.3353 122.637 62.2637C122.793 62.1921 122.959 62.1302 123.135 62.0781C123.311 62.026 123.493 62 123.682 62C123.818 62 123.955 62.0163 124.092 62.0488C124.229 62.0749 124.349 62.14 124.453 62.2441C124.564 62.3483 124.652 62.498 124.717 62.6934C124.788 62.8887 124.824 63.1523 124.824 63.4844V66.0039C124.889 65.9648 125.01 65.8932 125.186 65.7891C125.368 65.6784 125.586 65.5482 125.84 65.3984C126.094 65.2487 126.37 65.0859 126.67 64.9102C126.976 64.7344 127.282 64.5586 127.588 64.3828L129.951 62.9863C130.088 62.9082 130.205 62.8691 130.303 62.8691C130.452 62.8691 130.527 62.944 130.527 63.0938C130.527 63.1979 130.482 63.3118 130.391 63.4355C130.306 63.5527 130.16 63.6732 129.951 63.7969C129.235 64.2201 128.548 64.6237 127.891 65.0078C127.24 65.3919 126.647 65.7337 126.113 66.0332C125.586 66.3327 125.137 66.5768 124.766 66.7656C124.395 66.9479 124.134 67.0521 123.984 67.0781C123.913 67.0911 123.838 67.1009 123.76 67.1074C123.682 67.1139 123.604 67.1172 123.525 67.1172C123.291 67.1172 123.099 67.0846 122.949 67.0195C122.806 66.9609 122.692 66.8796 122.607 66.7754C122.529 66.6647 122.474 66.541 122.441 66.4043C122.415 66.2676 122.402 66.1211 122.402 65.9648C122.402 65.8151 122.428 65.6589 122.48 65.4961C122.539 65.3268 122.581 65.1413 122.607 64.9395L122.881 62.8008C121.898 63.4909 120.999 64.1029 120.186 64.6367C119.899 64.8646 119.616 65.0827 119.336 65.291C119.056 65.4993 118.799 65.6849 118.564 65.8477C118.337 66.0104 118.138 66.1406 117.969 66.2383C117.799 66.3294 117.686 66.375 117.627 66.375C117.503 66.375 117.37 66.3685 117.227 66.3555C117.083 66.3424 116.95 66.3132 116.826 66.2676C116.709 66.2155 116.608 66.1439 116.523 66.0527C116.445 65.9551 116.406 65.8281 116.406 65.6719ZM119.365 59.8418C120.186 59.2884 121.038 58.7188 121.924 58.1328C122.809 57.5404 123.704 56.9544 124.609 56.375C125.521 55.7956 126.426 55.2292 127.324 54.6758C128.229 54.1159 129.108 53.5918 129.961 53.1035C130.456 52.7324 130.837 52.3874 131.104 52.0684C131.37 51.7493 131.504 51.4629 131.504 51.209C131.504 50.8835 131.257 50.6263 130.762 50.4375C130.267 50.2422 129.482 50.1445 128.408 50.1445C127.907 50.1445 127.406 50.2422 126.904 50.4375C126.403 50.6263 125.908 50.8867 125.42 51.2188C124.938 51.5508 124.469 51.9414 124.014 52.3906C123.558 52.8333 123.125 53.3086 122.715 53.8164C122.305 54.3242 121.921 54.8516 121.562 55.3984C121.204 55.9388 120.879 56.4727 120.586 57C120.299 57.5273 120.052 58.0352 119.844 58.5234C119.635 59.0117 119.476 59.4512 119.365 59.8418ZM78.0176 73.0605C78.3887 73.0605 78.7174 73.1354 79.0039 73.2852C79.2969 73.4349 79.541 73.64 79.7363 73.9004C79.9382 74.1543 80.0911 74.4538 80.1953 74.7988C80.2995 75.1439 80.3516 75.5117 80.3516 75.9023C80.3516 76.1302 80.3255 76.3809 80.2734 76.6543C80.2214 76.9277 80.1465 77.2109 80.0488 77.5039C79.9512 77.7904 79.8307 78.0768 79.6875 78.3633C79.5508 78.6497 79.3978 78.9134 79.2285 79.1543C79.3522 79.0892 79.502 79.0078 79.6777 78.9102C79.8535 78.8125 80.0391 78.7083 80.2344 78.5977C80.4362 78.4805 80.6445 78.36 80.8594 78.2363C81.0807 78.1126 81.2956 77.9922 81.5039 77.875L83.0176 76.9863C83.0632 76.9603 83.125 76.9473 83.2031 76.9473C83.3529 76.9473 83.4277 77.0254 83.4277 77.1816C83.4277 77.3965 83.291 77.6016 83.0176 77.7969C82.7832 77.9531 82.4772 78.1484 82.0996 78.3828C81.722 78.6172 81.3118 78.8483 80.8691 79.0762C80.4329 79.2975 79.987 79.4961 79.5312 79.6719C79.082 79.8411 78.6621 79.9388 78.2715 79.9648C77.7637 80.3424 77.168 80.6484 76.4844 80.8828C75.8008 81.1107 75.0033 81.2246 74.0918 81.2246C73.6426 81.2246 73.2617 81.1855 72.9492 81.1074C72.6432 81.0293 72.3958 80.9154 72.207 80.7656C72.0182 80.6159 71.8815 80.4336 71.7969 80.2188C71.7122 79.9974 71.6699 79.7435 71.6699 79.457C71.6699 79.0404 71.7546 78.5944 71.9238 78.1191C72.0931 77.6439 72.3014 77.1816 72.5488 76.7324C72.8027 76.2767 73.0729 75.8535 73.3594 75.4629C73.6458 75.0723 73.9062 74.75 74.1406 74.4961C73.9323 74.6784 73.6361 74.8965 73.252 75.1504C72.8743 75.4043 72.4447 75.6777 71.9629 75.9707C71.4876 76.2572 70.9798 76.5566 70.4395 76.8691C69.9056 77.1816 69.375 77.4909 68.8477 77.7969C68.7695 77.8294 68.6979 77.8457 68.6328 77.8457C68.5482 77.8457 68.4831 77.8229 68.4375 77.7773C68.3919 77.7253 68.3691 77.6602 68.3691 77.582C68.3691 77.4909 68.4082 77.3965 68.4863 77.2988C68.5579 77.1947 68.6784 77.0905 68.8477 76.9863C69.8372 76.4069 70.6803 75.9089 71.377 75.4922C72.0736 75.069 72.6758 74.7109 73.1836 74.418C73.6914 74.125 74.1341 73.8906 74.5117 73.7148C74.8893 73.5391 75.2507 73.4023 75.5957 73.3047C75.9473 73.207 76.3118 73.1419 76.6895 73.1094C77.0671 73.0768 77.5098 73.0605 78.0176 73.0605ZM74.1113 80.3848C74.5215 80.3848 74.9219 80.3001 75.3125 80.1309C75.7031 79.9616 76.084 79.7305 76.4551 79.4375C76.3704 79.3398 76.3118 79.2292 76.2793 79.1055C76.2467 78.9818 76.2305 78.8548 76.2305 78.7246C76.2305 78.4967 76.3053 78.3275 76.4551 78.2168C76.6048 78.0996 76.7839 78.041 76.9922 78.041C77.2135 78.041 77.4284 78.1061 77.6367 78.2363C77.8451 78.0866 78.0436 77.9076 78.2324 77.6992C78.4212 77.4909 78.584 77.2695 78.7207 77.0352C78.8639 76.8008 78.9746 76.5599 79.0527 76.3125C79.1374 76.0651 79.1797 75.8242 79.1797 75.5898C79.1797 75.388 79.1406 75.196 79.0625 75.0137C78.9909 74.8249 78.8704 74.6621 78.7012 74.5254C78.5384 74.3887 78.3203 74.2812 78.0469 74.2031C77.7799 74.1185 77.4544 74.0762 77.0703 74.0762C76.7513 74.0762 76.4323 74.1608 76.1133 74.3301C75.8008 74.4993 75.498 74.7272 75.2051 75.0137C74.9186 75.2936 74.6484 75.6159 74.3945 75.9805C74.1471 76.3385 73.9323 76.7096 73.75 77.0938C73.5677 77.4779 73.4245 77.8555 73.3203 78.2266C73.2161 78.5977 73.1641 78.9362 73.1641 79.2422C73.1641 79.5807 73.2389 79.8574 73.3887 80.0723C73.5384 80.2806 73.7793 80.3848 74.1113 80.3848ZM94.834 74.6719C94.5866 74.6719 94.2773 74.7435 93.9062 74.8867C93.5352 75.0234 93.1283 75.2155 92.6855 75.4629C92.2428 75.7038 91.7806 75.9902 91.2988 76.3223C90.8236 76.6543 90.3548 77.0156 89.8926 77.4062C89.4368 77.7969 89.0007 78.2103 88.584 78.6465C88.1738 79.0762 87.8158 79.5091 87.5098 79.9453C87.4772 79.9779 87.4609 80.0527 87.4609 80.1699C87.4609 80.2806 87.4414 80.3978 87.4023 80.5215C87.3698 80.6452 87.3014 80.7559 87.1973 80.8535C87.0931 80.9512 86.9206 81 86.6797 81C86.5104 81 86.377 80.9805 86.2793 80.9414C86.1882 80.9023 86.1165 80.8503 86.0645 80.7852C86.0189 80.7135 85.9896 80.6322 85.9766 80.541C85.9635 80.4434 85.957 80.3359 85.957 80.2188C85.957 80.1016 85.9896 79.929 86.0547 79.7012C86.1198 79.4733 86.2044 79.2096 86.3086 78.9102C86.4128 78.6107 86.5299 78.2884 86.6602 77.9434C86.7904 77.5983 86.9206 77.2533 87.0508 76.9082C87.1875 76.5632 87.3145 76.2279 87.4316 75.9023C87.5553 75.5768 87.6595 75.2839 87.7441 75.0234L83.0273 77.7969C82.9948 77.8034 82.9688 77.8099 82.9492 77.8164C82.9232 77.8164 82.9036 77.8164 82.8906 77.8164C82.7995 77.8164 82.7344 77.7936 82.6953 77.748C82.6497 77.696 82.627 77.6341 82.627 77.5625C82.627 77.4714 82.6628 77.3737 82.7344 77.2695C82.7995 77.1589 82.8971 77.0645 83.0273 76.9863C84.0039 76.4069 84.8079 75.9316 85.4395 75.5605C86.0775 75.1829 86.5885 74.8802 86.9727 74.6523C87.3568 74.4245 87.6432 74.2552 87.832 74.1445C88.0273 74.0339 88.1738 73.9525 88.2715 73.9004C88.3626 73.8483 88.444 73.8125 88.5156 73.793C88.5938 73.7734 88.6784 73.7637 88.7695 73.7637C88.9583 73.7637 89.1113 73.819 89.2285 73.9297C89.3522 74.0404 89.4141 74.1641 89.4141 74.3008C89.4141 74.4375 89.3717 74.6263 89.2871 74.8672C89.2025 75.1016 89.0983 75.3587 88.9746 75.6387C88.8509 75.9186 88.724 76.2051 88.5938 76.498C88.4635 76.7845 88.3529 77.0514 88.2617 77.2988C88.2227 77.3965 88.1901 77.4779 88.1641 77.543C88.1445 77.6016 88.1185 77.6699 88.0859 77.748C88.0599 77.8262 88.0208 77.9271 87.9688 78.0508C87.9167 78.168 87.8418 78.334 87.7441 78.5488C88.0176 78.1973 88.3366 77.8294 88.7012 77.4453C89.0723 77.0612 89.4727 76.6868 89.9023 76.3223C90.3385 75.9512 90.8008 75.5996 91.2891 75.2676C91.7839 74.9355 92.2917 74.6458 92.8125 74.3984C93.3398 74.1445 93.877 73.946 94.4238 73.8027C94.9707 73.653 95.5143 73.5781 96.0547 73.5781C96.3867 73.5781 96.6146 73.6497 96.7383 73.793C96.8685 73.9297 96.9336 74.1185 96.9336 74.3594C96.9336 74.5547 96.8978 74.7923 96.8262 75.0723C96.7546 75.3522 96.6569 75.6582 96.5332 75.9902C96.4095 76.3158 96.2695 76.6673 96.1133 77.0449C95.957 77.416 95.791 77.7936 95.6152 78.1777C95.446 78.5553 95.2734 78.9362 95.0977 79.3203C94.9284 79.7044 94.7689 80.0723 94.6191 80.4238C94.9902 80.2741 95.3776 80.0788 95.7812 79.8379C96.1849 79.597 96.6146 79.3268 97.0703 79.0273C97.5326 78.7279 98.0176 78.4056 98.5254 78.0605C99.0397 77.709 99.5898 77.3509 100.176 76.9863C100.221 76.9603 100.283 76.9473 100.361 76.9473C100.518 76.9473 100.596 77.0352 100.596 77.2109C100.596 77.3021 100.56 77.403 100.488 77.5137C100.417 77.6178 100.312 77.7122 100.176 77.7969C99.401 78.2786 98.7012 78.7376 98.0762 79.1738C97.4512 79.61 96.8783 79.9974 96.3574 80.3359C95.8431 80.6745 95.3711 80.9414 94.9414 81.1367C94.5182 81.3385 94.1243 81.4395 93.7598 81.4395C93.5384 81.4395 93.3496 81.4102 93.1934 81.3516C93.0371 81.2995 92.9069 81.2279 92.8027 81.1367C92.7051 81.0456 92.6302 80.9382 92.5781 80.8145C92.5326 80.6842 92.5098 80.5508 92.5098 80.4141C92.5098 80.2643 92.5391 80.1178 92.5977 79.9746C92.6628 79.8249 92.7507 79.6654 92.8613 79.4961C93.0632 79.0534 93.2878 78.5911 93.5352 78.1094C93.7826 77.6211 94.0104 77.1589 94.2188 76.7227C94.4271 76.2865 94.6029 75.8991 94.7461 75.5605C94.8893 75.222 94.9609 74.9779 94.9609 74.8281C94.9609 74.724 94.9186 74.6719 94.834 74.6719ZM111.152 77.7969C110.143 78.3763 109.287 78.8809 108.584 79.3105C107.881 79.7337 107.282 80.0853 106.787 80.3652C106.292 80.6387 105.872 80.8438 105.527 80.9805C105.189 81.1107 104.88 81.1758 104.6 81.1758C104.326 81.1758 104.092 81.1432 103.896 81.0781C103.708 81.013 103.551 80.9251 103.428 80.8145C103.304 80.7038 103.213 80.5703 103.154 80.4141C103.102 80.2578 103.076 80.0885 103.076 79.9062C103.076 79.7695 103.105 79.6296 103.164 79.4863C103.223 79.3431 103.294 79.1966 103.379 79.0469C103.47 78.8971 103.564 78.7409 103.662 78.5781C103.76 78.4089 103.851 78.2298 103.936 78.041L105.42 74.7207L100.176 77.7969C100.091 77.8294 100.033 77.8457 100 77.8457C99.9219 77.8457 99.8535 77.8197 99.7949 77.7676C99.7298 77.7155 99.6973 77.6471 99.6973 77.5625C99.6973 77.4844 99.7331 77.3965 99.8047 77.2988C99.8698 77.2012 99.9935 77.097 100.176 76.9863L102.705 75.5117C103.037 75.3164 103.372 75.1211 103.711 74.9258C104.049 74.7305 104.365 74.5482 104.658 74.3789C104.958 74.2096 105.225 74.0599 105.459 73.9297C105.7 73.793 105.885 73.6888 106.016 73.6172H107.275C107.301 73.6367 107.324 73.6693 107.344 73.7148C107.363 73.7604 107.373 73.8288 107.373 73.9199C107.373 74.0892 107.324 74.3301 107.227 74.6426C107.129 74.9486 107.005 75.2936 106.855 75.6777C106.712 76.0618 106.549 76.4655 106.367 76.8887C106.191 77.3053 106.025 77.7025 105.869 78.0801C105.713 78.4512 105.55 78.8223 105.381 79.1934C105.212 79.5645 105.042 79.9453 104.873 80.3359C105.049 80.3359 105.326 80.248 105.703 80.0723C106.087 79.8965 106.549 79.6589 107.09 79.3594C107.637 79.0534 108.252 78.6986 108.936 78.2949C109.626 77.8848 110.365 77.4486 111.152 76.9863C111.178 76.9603 111.227 76.9473 111.299 76.9473C111.377 76.9473 111.449 76.9733 111.514 77.0254C111.585 77.0775 111.621 77.1491 111.621 77.2402C111.621 77.3184 111.585 77.4062 111.514 77.5039C111.449 77.5951 111.328 77.6927 111.152 77.7969ZM108.457 70.1992C108.496 70.1992 108.568 70.2025 108.672 70.209C108.783 70.209 108.906 70.2155 109.043 70.2285C109.18 70.2415 109.323 70.2643 109.473 70.2969C109.622 70.3229 109.759 70.3652 109.883 70.4238C110.007 70.4759 110.111 70.5443 110.195 70.6289C110.28 70.7135 110.326 70.8177 110.332 70.9414L108.916 72.0156L108.271 72.3184C108.154 72.3184 108.063 72.2858 107.998 72.2207C107.933 72.1556 107.884 72.0872 107.852 72.0156L108.457 70.1992Z" fill="#1D1735"/>
<path d="M5 67C5 65.3431 6.34315 64 8 64H21C22.6569 64 24 65.3431 24 67V80C24 81.6569 22.6569 83 21 83H8C6.34315 83 5 81.6569 5 80V67Z" fill="#DB4B64"/>
<path d="M8 64.75H21C22.2426 64.75 23.25 65.7574 23.25 67V80C23.25 81.2426 22.2426 82.25 21 82.25H8C6.75736 82.25 5.75 81.2426 5.75 80V67C5.75 65.7574 6.75736 64.75 8 64.75Z" stroke="#04102F" stroke-opacity="0.88" stroke-width="1.5"/>
<path d="M29 64.75H42C43.2426 64.75 44.25 65.7574 44.25 67V80C44.25 81.2426 43.2426 82.25 42 82.25H29C27.7574 82.25 26.75 81.2426 26.75 80V67C26.75 65.7574 27.7574 64.75 29 64.75Z" fill="#58A4BE" stroke="#1D1735" stroke-width="1.5"/>
<path d="M29 43.75H42C43.2426 43.75 44.25 44.7574 44.25 46V59C44.25 60.2426 43.2426 61.25 42 61.25H29C27.7574 61.25 26.75 60.2426 26.75 59V46C26.75 44.7574 27.7574 43.75 29 43.75Z" fill="#F7A416" stroke="#1D1735" stroke-width="1.5"/>
<path d="M8 43.75H21C22.2426 43.75 23.25 44.7574 23.25 46V59C23.25 60.2426 22.2426 61.25 21 61.25H8C6.75736 61.25 5.75 60.2426 5.75 59V46C5.75 44.7574 6.75736 43.75 8 43.75Z" fill="#E7E7E5" stroke="#1D1735" stroke-width="1.5"/>
</svg>
